<svg viewBox="0 0 330 200" xmlns="http://www.w3.org/2000/svg"><g><g><g><g><g><line x1="46" y1="178" x2="41" y2="178" style="visibility: inherit;" fill="rgb(0, 0, 0)" stroke="rgb(204, 204, 204)" stroke-width="1px"></line><line x1="46" y1="161.8181818181818" x2="41" y2="161.8181818181818" style="visibility: inherit;" fill="rgb(0, 0, 0)" stroke="rgb(204, 204, 204)" stroke-width="1px"></line><line x1="46" y1="145.63636363636363" x2="41" y2="145.63636363636363" style="visibility: inherit;" fill="rgb(0, 0, 0)" stroke="rgb(204, 204, 204)" stroke-width="1px"></line><line x1="46" y1="129.45454545454547" x2="41" y2="129.45454545454547" style="visibility: inherit;" fill="rgb(0, 0, 0)" stroke="rgb(204, 204, 204)" stroke-width="1px"></line><line x1="46" y1="113.27272727272727" x2="41" y2="113.27272727272727" style="visibility: inherit;" fill="rgb(0, 0, 0)" stroke="rgb(204, 204, 204)" stroke-width="1px"></line><line x1="46" y1="97.0909090909091" x2="41" y2="97.0909090909091" style="visibility: inherit;" fill="rgb(0, 0, 0)" stroke="rgb(204, 204, 204)" stroke-width="1px"></line><line x1="46" y1="80.90909090909092" x2="41" y2="80.90909090909092" style="visibility: inherit;" fill="rgb(0, 0, 0)" stroke="rgb(204, 204, 204)" stroke-width="1px"></line><line x1="46" y1="64.72727272727273" x2="41" y2="64.72727272727273" style="visibility: inherit;" fill="rgb(0, 0, 0)" stroke="rgb(204, 204, 204)" stroke-width="1px"></line><line x1="46" y1="48.54545454545453" x2="41" y2="48.54545454545453" style="visibility: inherit;" fill="rgb(0, 0, 0)" stroke="rgb(204, 204, 204)" stroke-width="1px"></line><line x1="46" y1="32.363636363636346" x2="41" y2="32.363636363636346" style="visibility: inherit;" fill="rgb(0, 0, 0)" stroke="rgb(204, 204, 204)" stroke-width="1px"></line><line x1="46" y1="16.181818181818187" x2="41" y2="16.181818181818187" style="visibility: inherit;" fill="rgb(0, 0, 0)" stroke="rgb(204, 204, 204)" stroke-width="1px"></line><line x1="46" y1="0" x2="41" y2="0" style="visibility: inherit;" fill="rgb(0, 0, 0)" stroke="rgb(204, 204, 204)" stroke-width="1px"></line></g><g transform="translate(36, 0)"><text x="0" y="178" dx="0em" dy="0.3em" style="text-anchor: end; visibility: hidden; font-family: &quot;Helvetica Neue&quot;, sans-serif; font-size: 12px; font-weight: 200;" fill="rgb(50, 49, 63)" stroke="none" stroke-width="1px">-10</text><text x="0" y="161.8181818181818" dx="0em" dy="0.3em" style="text-anchor: end; visibility: inherit; font-family: &quot;Helvetica Neue&quot;, sans-serif; font-size: 12px; font-weight: 200;" fill="rgb(50, 49, 63)" stroke="none" stroke-width="1px">0</text><text x="0" y="145.63636363636363" dx="0em" dy="0.3em" style="text-anchor: end; visibility: hidden; font-family: &quot;Helvetica Neue&quot;, sans-serif; font-size: 12px; font-weight: 200;" fill="rgb(50, 49, 63)" stroke="none" stroke-width="1px">10</text><text x="0" y="129.45454545454547" dx="0em" dy="0.3em" style="text-anchor: end; visibility: inherit; font-family: &quot;Helvetica Neue&quot;, sans-serif; font-size: 12px; font-weight: 200;" fill="rgb(50, 49, 63)" stroke="none" stroke-width="1px">20</text><text x="0" y="113.27272727272727" dx="0em" dy="0.3em" style="text-anchor: end; visibility: hidden; font-family: &quot;Helvetica Neue&quot;, sans-serif; font-size: 12px; font-weight: 200;" fill="rgb(50, 49, 63)" stroke="none" stroke-width="1px">30</text><text x="0" y="97.0909090909091" dx="0em" dy="0.3em" style="text-anchor: end; visibility: inherit; font-family: &quot;Helvetica Neue&quot;, sans-serif; font-size: 12px; font-weight: 200;" fill="rgb(50, 49, 63)" stroke="none" stroke-width="1px">40</text><text x="0" y="80.90909090909092" dx="0em" dy="0.3em" style="text-anchor: end; visibility: hidden; font-family: &quot;Helvetica Neue&quot;, sans-serif; font-size: 12px; font-weight: 200;" fill="rgb(50, 49, 63)" stroke="none" stroke-width="1px">50</text><text x="0" y="64.72727272727273" dx="0em" dy="0.3em" style="text-anchor: end; visibility: inherit; font-family: &quot;Helvetica Neue&quot;, sans-serif; font-size: 12px; font-weight: 200;" fill="rgb(50, 49, 63)" stroke="none" stroke-width="1px">60</text><text x="0" y="48.54545454545453" dx="0em" dy="0.3em" style="text-anchor: end; visibility: hidden; font-family: &quot;Helvetica Neue&quot;, sans-serif; font-size: 12px; font-weight: 200;" fill="rgb(50, 49, 63)" stroke="none" stroke-width="1px">70</text><text x="0" y="32.363636363636346" dx="0em" dy="0.3em" style="text-anchor: end; visibility: inherit; font-family: &quot;Helvetica Neue&quot;, sans-serif; font-size: 12px; font-weight: 200;" fill="rgb(50, 49, 63)" stroke="none" stroke-width="1px">80</text><text x="0" y="16.181818181818187" dx="0em" dy="0.3em" style="text-anchor: end; visibility: hidden; font-family: &quot;Helvetica Neue&quot;, sans-serif; font-size: 12px; font-weight: 200;" fill="rgb(50, 49, 63)" stroke="none" stroke-width="1px">90</text><text x="0" y="0" dx="0em" dy="0.3em" style="text-anchor: end; visibility: hidden; font-family: &quot;Helvetica Neue&quot;, sans-serif; font-size: 12px; font-weight: 200;" fill="rgb(50, 49, 63)" stroke="none" stroke-width="1px">100</text></g><line x1="46" y1="0" x2="46" y2="178" fill="rgb(0, 0, 0)" stroke="rgb(204, 204, 204)" stroke-width="1px"></line></g></g><g transform="translate(46, 0)" clip-path="url(#clip_0)"><clipPath id="clip_0"><rect width="284" height="178"></rect></clipPath><g><g><g><line x1="0" y1="0" x2="0" y2="178" fill="rgb(0, 0, 0)" stroke="rgb(60, 60, 60)" stroke-width="1px" opacity="0.25"></line><line x1="28.400000000000002" y1="0" x2="28.400000000000002" y2="178" fill="rgb(0, 0, 0)" stroke="rgb(60, 60, 60)" stroke-width="1px" opacity="0.25"></line><line x1="56.800000000000004" y1="0" x2="56.800000000000004" y2="178" fill="rgb(0, 0, 0)" stroke="rgb(60, 60, 60)" stroke-width="1px" opacity="0.25"></line><line x1="85.2" y1="0" x2="85.2" y2="178" fill="rgb(0, 0, 0)" stroke="rgb(60, 60, 60)" stroke-width="1px" opacity="0.25"></line><line x1="113.60000000000001" y1="0" x2="113.60000000000001" y2="178" fill="rgb(0, 0, 0)" stroke="rgb(60, 60, 60)" stroke-width="1px" opacity="0.25"></line><line x1="142" y1="0" x2="142" y2="178" fill="rgb(0, 0, 0)" stroke="rgb(60, 60, 60)" stroke-width="1px" opacity="0.25"></line><line x1="170.4" y1="0" x2="170.4" y2="178" fill="rgb(0, 0, 0)" stroke="rgb(60, 60, 60)" stroke-width="1px" opacity="0.25"></line><line x1="198.79999999999998" y1="0" x2="198.79999999999998" y2="178" fill="rgb(0, 0, 0)" stroke="rgb(60, 60, 60)" stroke-width="1px" opacity="0.25"></line><line x1="227.20000000000002" y1="0" x2="227.20000000000002" y2="178" fill="rgb(0, 0, 0)" stroke="rgb(60, 60, 60)" stroke-width="1px" opacity="0.25"></line><line x1="255.6" y1="0" x2="255.6" y2="178" fill="rgb(0, 0, 0)" stroke="rgb(60, 60, 60)" stroke-width="1px" opacity="0.25"></line><line x1="284" y1="0" x2="284" y2="178" fill="rgb(0, 0, 0)" stroke="rgb(60, 60, 60)" stroke-width="1px" opacity="0.25"></line></g><g><line x1="0" y1="178" x2="284" y2="178" fill="rgb(0, 0, 0)" stroke="rgb(60, 60, 60)" stroke-width="1px" opacity="0.25"></line><line x1="0" y1="161.8181818181818" x2="284" y2="161.8181818181818" fill="rgb(0, 0, 0)" stroke="rgb(60, 60, 60)" stroke-width="1px" opacity="0.25"></line><line x1="0" y1="145.63636363636363" x2="284" y2="145.63636363636363" fill="rgb(0, 0, 0)" stroke="rgb(60, 60, 60)" stroke-width="1px" opacity="0.25"></line><line x1="0" y1="129.45454545454547" x2="284" y2="129.45454545454547" fill="rgb(0, 0, 0)" stroke="rgb(60, 60, 60)" stroke-width="1px" opacity="0.25"></line><line x1="0" y1="113.27272727272727" x2="284" y2="113.27272727272727" fill="rgb(0, 0, 0)" stroke="rgb(60, 60, 60)" stroke-width="1px" opacity="0.25"></line><line x1="0" y1="97.0909090909091" x2="284" y2="97.0909090909091" fill="rgb(0, 0, 0)" stroke="rgb(60, 60, 60)" stroke-width="1px" opacity="0.25"></line><line x1="0" y1="80.90909090909092" x2="284" y2="80.90909090909092" fill="rgb(0, 0, 0)" stroke="rgb(60, 60, 60)" stroke-width="1px" opacity="0.25"></line><line x1="0" y1="64.72727272727273" x2="284" y2="64.72727272727273" fill="rgb(0, 0, 0)" stroke="rgb(60, 60, 60)" stroke-width="1px" opacity="0.25"></line><line x1="0" y1="48.54545454545453" x2="284" y2="48.54545454545453" fill="rgb(0, 0, 0)" stroke="rgb(60, 60, 60)" stroke-width="1px" opacity="0.25"></line><line x1="0" y1="32.363636363636346" x2="284" y2="32.363636363636346" fill="rgb(0, 0, 0)" stroke="rgb(60, 60, 60)" stroke-width="1px" opacity="0.25"></line><line x1="0" y1="16.181818181818187" x2="284" y2="16.181818181818187" fill="rgb(0, 0, 0)" stroke="rgb(60, 60, 60)" stroke-width="1px" opacity="0.25"></line><line x1="0" y1="0" x2="284" y2="0" fill="rgb(0, 0, 0)" stroke="rgb(60, 60, 60)" stroke-width="1px" opacity="0.25"></line></g></g></g><g><g><line x1="0" y1="161.8181818181818" x2="284" y2="161.8181818181818" fill="rgb(0, 0, 0)" stroke="rgb(153, 153, 153)" stroke-width="1.5px"></line></g></g><g><g><line x1="28.400000000000002" y1="0" x2="28.400000000000002" y2="178" fill="rgb(0, 0, 0)" stroke="rgb(153, 153, 153)" stroke-width="1.5px"></line></g></g><g><g><g><g><g><path stroke="rgb(238, 51, 119)" stroke-width="2px" d="M28.400000000000002,106.19318181818183L29.82,115.29909691149186L31.24,120.57099186662114L32.660000000000004,120.90057867102134L34.08,121.07856098464815L35.5,117.48196045315903L36.92,117.06524369099787L38.34,86.93297459036582L39.760000000000005,70.99839997197408L41.18,55.463096788314814L42.6,45.266718513908785L44.02,41.945180715117914L45.44,38.049596237171386L46.86,35.46616832147396L48.28,32.057686601645486L49.699999999999996,36.55795731431769L51.12,34.47938912450513L52.54,44.926920744805045L53.96,41.74276081937276L55.38,43.00184530169321L56.800000000000004,38.77226226651064L58.22,35.955822063642614L59.64,39.147650886249835L61.06,37.89510375937684L62.48,45.50616034489349L63.9,45.50789828895054L65.32000000000001,45.50905573481572L66.74,43.82083003887081L68.16,41.00749233661264L69.58,35.755849681836025L71,40.703185290630216L72.42,37.24217727069404L73.84,43.382049241567756L75.26,47.47119886640618L76.68,40.060699894546104L78.10000000000001,36.81428833237345L79.52000000000001,46.475023416374086L80.94,41.08622817603717L82.36,42.56422361261326L83.78,50.30447814400472L85.2,43.636645694412294L86.62,40.88484683551371L88.04,35.6741942223415L89.46,37.270831561191955L90.88,40.02316930563518L92.3,35.10031708386168L93.72,31.821697524931324L95.14,33.01609146471225L96.56,38.87848965590251L97.97999999999999,36.02693774294079L99.39999999999999,32.43882689686998L100.82,26.671190527680807L102.24,27.89687652833919L103.66,37.15806977059205L105.08,38.25909264924772L106.5,40.681351159259776L107.92,37.227643508131194L109.34,41.68338330394539L110.76,44.650906007814484L112.18,46.6272761285278L113.60000000000001,51.32149317440687L115.02000000000001,52.7588644541713L116.44,52.027176453745284L117.86,46.47294042725727L119.28,44.46279650636478L120.7,49.87994974597834L122.12,48.42084198536483L123.54,49.13805348952644L124.96,49.615716351297635L126.38,49.93383981723707L127.8,50.14571004555269L129.22,45.21988379942803L130.64000000000001,45.317238064964556L132.06,36.93718964217476L133.48,31.356077392597143L134.9,31.017011179833332L136.32,37.54710217304191L137.74,31.762279138154895L139.16,32.97651881510208L140.58,30.407247894494304L142,27.007136188642306L143.42,26.431639065272122L144.84,34.49324434474397L146.26,41.55125073359949L147.68,39.495973897668165L149.1,38.127159524937895L150.52,43.971438243608645L151.94,37.72986423387971L153.36,38.639907761582066L154.78,34.17906493285L156.20000000000002,36.27507542709628L157.62,32.60408659808249L159.04000000000002,36.91511712886839L160.45999999999998,33.03035437146269L161.88,42.26594328412145L163.29999999999998,41.660936409043074L164.72,37.880047284786315L166.14,37.050952400758575L167.56,29.74286611708706L168.98,36.69852156125273L170.4,41.330988087067055L171.82,47.794165338713924L173.24,48.720686842856196L174.66,47.64877289188769L176.08,48.62385547326994L177.5,52.65121501792504L178.92,45.19957283830172L180.34,38.5478018739453L181.76,49.3185178662294L183.18,49.735905626181534L184.6,44.946954056127794L186.02,43.44648958319931L187.44,45.82513478968346L188.86,42.342380679020124L190.28,41.711843714045585L191.70000000000002,39.60292882264528L193.12,38.19839150497265L194.54000000000002,42.329901469584485L195.95999999999998,41.703532560561456L197.38,46.353302685333915L198.79999999999998,51.13902686115968L200.22,42.50347825316871L201.64,38.441180152974L203.06,34.04671234551708L204.48,29.43101951302347L205.9,29.734922632037296L207.32,36.69323120020954L208.74,32.88257834297593L210.16,37.10059263096741L211.58,34.84285832858794L213,43.47307091956685L214.42,44.15386068697697L215.84,36.16238030843576L217.26,29.151077103600016L218.68,31.237458260088545L220.1,32.62698811030987L221.52,25.107528626920924L222.94,36.989341338256594L224.36,33.07978769491527L225.78,33.85397951390448L227.20000000000002,37.74754581080583L228.62,36.962706419087596L230.04000000000002,39.81795792965781L231.45999999999998,45.097509981152086L232.88,40.16880528381091L234.29999999999998,35.19731068265443L235.72,33.57527255101152L237.14,32.49499515533731L238.56,38.5314395007274L239.98,35.79580234384807L241.4,42.41875436100284L242.82,33.31782222260969L244.24,34.01251050934897L245.66,39.54210472649913L247.08,39.84685992966658L248.5,33.293917804067036L249.92,35.68556743932683L251.34,35.58942882368257L252.76,35.5254005056635L254.18,35.48275764586282L255.6,28.69844841032642L257.02,36.00293936855016L258.44,35.80079852854533L259.86,35.66617272910207L261.28000000000003,33.88753467394562L262.7,24.25807536557508L264.12,29.6676963752912L265.54,41.71539033139848L266.96,39.6052908698023L268.38,33.13303281019742L269.8,35.57841803340966L271.21999999999997,33.82909004661448L272.64,30.975060334681586" style="fill: none;" fill="none"></path></g></g></g></g><g opacity="0.2"><g><g><g><path stroke="rgb(238, 51, 119)" stroke-width="2px" d="M28.400000000000002,106.19318181818183L29.82,121.36363636363637L31.24,126.42045454545453L32.660000000000004,121.36363636363637L34.08,121.36363636363637L35.5,111.25L36.92,116.30681818181819L38.34,30.340909090909093L39.760000000000005,40.45454545454547L41.18,25.284090909090907L42.6,25.284090909090907L44.02,35.39772727272728L45.44,30.340909090909093L46.86,30.340909090909093L48.28,25.284090909090907L49.699999999999996,45.511363636363654L51.12,30.340909090909093L52.54,65.73863636363636L53.96,35.39772727272728L55.38,45.511363636363654L56.800000000000004,30.340909090909093L58.22,30.340909090909093L59.64,45.511363636363654L61.06,35.39772727272728L62.48,60.68181818181819L63.9,45.511363636363654L65.32000000000001,45.511363636363654L66.74,40.45454545454547L68.16,35.39772727272728L69.58,25.284090909090907L71,50.56818181818181L72.42,30.340909090909093L73.84,55.625L75.26,55.625L76.68,25.284090909090907L78.10000000000001,30.340909090909093L79.52000000000001,65.73863636363636L80.94,30.340909090909093L82.36,45.511363636363654L83.78,65.73863636363636L85.2,30.340909090909093L86.62,35.39772727272728L88.04,25.284090909090907L89.46,40.45454545454547L90.88,45.511363636363654L92.3,25.284090909090907L93.72,25.284090909090907L95.14,35.39772727272728L96.56,50.56818181818181L97.97999999999999,30.340909090909093L99.39999999999999,25.284090909090907L100.82,15.170454545454533L102.24,30.340909090909093L103.66,55.625L105.08,40.45454545454547L106.5,45.511363636363654L107.92,30.340909090909093L109.34,50.56818181818181L110.76,50.56818181818181L112.18,50.56818181818181L113.60000000000001,60.68181818181819L115.02000000000001,55.625L116.44,50.56818181818181L117.86,35.39772727272728L119.28,40.45454545454547L120.7,60.68181818181819L122.12,45.511363636363654L123.54,50.56818181818181L124.96,50.56818181818181L126.38,50.56818181818181L127.8,50.56818181818181L129.22,35.39772727272728L130.64000000000001,45.511363636363654L132.06,20.22727272727272L133.48,20.22727272727272L134.9,30.340909090909093L136.32,50.56818181818181L137.74,20.22727272727272L139.16,35.39772727272728L140.58,25.284090909090907L142,20.22727272727272L143.42,25.284090909090907L144.84,50.56818181818181L146.26,55.625L147.68,35.39772727272728L149.1,35.39772727272728L150.52,55.625L151.94,25.284090909090907L153.36,40.45454545454547L154.78,25.284090909090907L156.20000000000002,40.45454545454547L157.62,25.284090909090907L159.04000000000002,45.511363636363654L160.45999999999998,25.284090909090907L161.88,60.68181818181819L163.29999999999998,40.45454545454547L164.72,30.340909090909093L166.14,35.39772727272728L167.56,15.170454545454533L168.98,50.56818181818181L170.4,50.56818181818181L171.82,60.68181818181819L173.24,50.56818181818181L174.66,45.511363636363654L176.08,50.56818181818181L177.5,60.68181818181819L178.92,30.340909090909093L180.34,25.284090909090907L181.76,70.79545454545455L183.18,50.56818181818181L184.6,35.39772727272728L186.02,40.45454545454547L187.44,50.56818181818181L188.86,35.39772727272728L190.28,40.45454545454547L191.70000000000002,35.39772727272728L193.12,35.39772727272728L194.54000000000002,50.56818181818181L195.95999999999998,40.45454545454547L197.38,55.625L198.79999999999998,60.68181818181819L200.22,25.284090909090907L201.64,30.340909090909093L203.06,25.284090909090907L204.48,20.22727272727272L205.9,30.340909090909093L207.32,50.56818181818181L208.74,25.284090909090907L210.16,45.511363636363654L211.58,30.340909090909093L213,60.68181818181819L214.42,45.511363636363654L215.84,20.22727272727272L217.26,15.170454545454533L218.68,35.39772727272728L220.1,35.39772727272728L221.52,10.113636363636346L222.94,60.68181818181819L224.36,25.284090909090907L225.78,35.39772727272728L227.20000000000002,45.511363636363654L228.62,35.39772727272728L230.04000000000002,45.511363636363654L231.45999999999998,55.625L232.88,30.340909090909093L234.29999999999998,25.284090909090907L235.72,30.340909090909093L237.14,30.340909090909093L238.56,50.56818181818181L239.98,30.340909090909093L241.4,55.625L242.82,15.170454545454533L244.24,35.39772727272728L245.66,50.56818181818181L247.08,40.45454545454547L248.5,20.22727272727272L249.92,40.45454545454547L251.34,35.39772727272728L252.76,35.39772727272728L254.18,35.39772727272728L255.6,15.170454545454533L257.02,50.56818181818181L258.44,35.39772727272728L259.86,35.39772727272728L261.28000000000003,30.340909090909093L262.7,5.056818181818187L264.12,40.45454545454547L265.54,65.73863636363636L266.96,35.39772727272728L268.38,20.22727272727272L269.8,40.45454545454547L271.21999999999997,30.340909090909093L272.64,25.284090909090907" style="fill: none;" fill="none"></path></g></g></g></g></g></g><g transform="translate(46, 178)" clip-path="url(#clip_1)"><clipPath id="clip_1"><rect width="284" height="22"></rect></clipPath><g><g><line x1="0" y1="0" x2="0" y2="5" style="visibility: inherit;" fill="rgb(0, 0, 0)" stroke="rgb(204, 204, 204)" stroke-width="1px"></line><line x1="28.400000000000002" y1="0" x2="28.400000000000002" y2="5" style="visibility: inherit;" fill="rgb(0, 0, 0)" stroke="rgb(204, 204, 204)" stroke-width="1px"></line><line x1="56.800000000000004" y1="0" x2="56.800000000000004" y2="5" style="visibility: inherit;" fill="rgb(0, 0, 0)" stroke="rgb(204, 204, 204)" stroke-width="1px"></line><line x1="85.2" y1="0" x2="85.2" y2="5" style="visibility: inherit;" fill="rgb(0, 0, 0)" stroke="rgb(204, 204, 204)" stroke-width="1px"></line><line x1="113.60000000000001" y1="0" x2="113.60000000000001" y2="5" style="visibility: inherit;" fill="rgb(0, 0, 0)" stroke="rgb(204, 204, 204)" stroke-width="1px"></line><line x1="142" y1="0" x2="142" y2="5" style="visibility: inherit;" fill="rgb(0, 0, 0)" stroke="rgb(204, 204, 204)" stroke-width="1px"></line><line x1="170.4" y1="0" x2="170.4" y2="5" style="visibility: inherit;" fill="rgb(0, 0, 0)" stroke="rgb(204, 204, 204)" stroke-width="1px"></line><line x1="198.79999999999998" y1="0" x2="198.79999999999998" y2="5" style="visibility: inherit;" fill="rgb(0, 0, 0)" stroke="rgb(204, 204, 204)" stroke-width="1px"></line><line x1="227.20000000000002" y1="0" x2="227.20000000000002" y2="5" style="visibility: inherit;" fill="rgb(0, 0, 0)" stroke="rgb(204, 204, 204)" stroke-width="1px"></line><line x1="255.6" y1="0" x2="255.6" y2="5" style="visibility: inherit;" fill="rgb(0, 0, 0)" stroke="rgb(204, 204, 204)" stroke-width="1px"></line><line x1="284" y1="0" x2="284" y2="5" style="visibility: inherit;" fill="rgb(0, 0, 0)" stroke="rgb(204, 204, 204)" stroke-width="1px"></line></g><g transform="translate(0, 8)"><text x="0" y="0" dx="0em" dy="0.95em" style="text-anchor: middle; visibility: hidden; font-family: &quot;Helvetica Neue&quot;, sans-serif; font-size: 12px; font-weight: 200;" fill="rgb(50, 49, 63)" stroke="none" stroke-width="1px">-20</text><text x="28.400000000000002" y="0" dx="0em" dy="0.95em" style="text-anchor: middle; visibility: inherit; font-family: &quot;Helvetica Neue&quot;, sans-serif; font-size: 12px; font-weight: 200;" fill="rgb(50, 49, 63)" stroke="none" stroke-width="1px">0</text><text x="56.800000000000004" y="0" dx="0em" dy="0.95em" style="text-anchor: middle; visibility: inherit; font-family: &quot;Helvetica Neue&quot;, sans-serif; font-size: 12px; font-weight: 200;" fill="rgb(50, 49, 63)" stroke="none" stroke-width="1px">20</text><text x="85.2" y="0" dx="0em" dy="0.95em" style="text-anchor: middle; visibility: inherit; font-family: &quot;Helvetica Neue&quot;, sans-serif; font-size: 12px; font-weight: 200;" fill="rgb(50, 49, 63)" stroke="none" stroke-width="1px">40</text><text x="113.60000000000001" y="0" dx="0em" dy="0.95em" style="text-anchor: middle; visibility: inherit; font-family: &quot;Helvetica Neue&quot;, sans-serif; font-size: 12px; font-weight: 200;" fill="rgb(50, 49, 63)" stroke="none" stroke-width="1px">60</text><text x="142" y="0" dx="0em" dy="0.95em" style="text-anchor: middle; visibility: inherit; font-family: &quot;Helvetica Neue&quot;, sans-serif; font-size: 12px; font-weight: 200;" fill="rgb(50, 49, 63)" stroke="none" stroke-width="1px">80</text><text x="170.4" y="0" dx="0em" dy="0.95em" style="text-anchor: middle; visibility: inherit; font-family: &quot;Helvetica Neue&quot;, sans-serif; font-size: 12px; font-weight: 200;" fill="rgb(50, 49, 63)" stroke="none" stroke-width="1px">100</text><text x="198.79999999999998" y="0" dx="0em" dy="0.95em" style="text-anchor: middle; visibility: inherit; font-family: &quot;Helvetica Neue&quot;, sans-serif; font-size: 12px; font-weight: 200;" fill="rgb(50, 49, 63)" stroke="none" stroke-width="1px">120</text><text x="227.20000000000002" y="0" dx="0em" dy="0.95em" style="text-anchor: middle; visibility: inherit; font-family: &quot;Helvetica Neue&quot;, sans-serif; font-size: 12px; font-weight: 200;" fill="rgb(50, 49, 63)" stroke="none" stroke-width="1px">140</text><text x="255.6" y="0" dx="0em" dy="0.95em" style="text-anchor: middle; visibility: inherit; font-family: &quot;Helvetica Neue&quot;, sans-serif; font-size: 12px; font-weight: 200;" fill="rgb(50, 49, 63)" stroke="none" stroke-width="1px">160</text><text x="284" y="0" dx="0em" dy="0.95em" style="text-anchor: middle; visibility: hidden; font-family: &quot;Helvetica Neue&quot;, sans-serif; font-size: 12px; font-weight: 200;" fill="rgb(50, 49, 63)" stroke="none" stroke-width="1px">180</text></g><line x1="0" y1="0" x2="284" y2="0" fill="rgb(0, 0, 0)" stroke="rgb(204, 204, 204)" stroke-width="1px"></line></g></g></g></g></svg>