<svg viewBox="0 0 330 200" xmlns="http://www.w3.org/2000/svg"><g><g><g><g><g><line x1="34" y1="178" x2="29" y2="178" style="visibility: inherit;" fill="rgb(0, 0, 0)" stroke="rgb(204, 204, 204)" stroke-width="1px"></line><line x1="34" y1="158.22222222222223" x2="29" y2="158.22222222222223" style="visibility: inherit;" fill="rgb(0, 0, 0)" stroke="rgb(204, 204, 204)" stroke-width="1px"></line><line x1="34" y1="138.44444444444446" x2="29" y2="138.44444444444446" style="visibility: inherit;" fill="rgb(0, 0, 0)" stroke="rgb(204, 204, 204)" stroke-width="1px"></line><line x1="34" y1="118.66666666666667" x2="29" y2="118.66666666666667" style="visibility: inherit;" fill="rgb(0, 0, 0)" stroke="rgb(204, 204, 204)" stroke-width="1px"></line><line x1="34" y1="98.8888888888889" x2="29" y2="98.8888888888889" style="visibility: inherit;" fill="rgb(0, 0, 0)" stroke="rgb(204, 204, 204)" stroke-width="1px"></line><line x1="34" y1="79.1111111111111" x2="29" y2="79.1111111111111" style="visibility: inherit;" fill="rgb(0, 0, 0)" stroke="rgb(204, 204, 204)" stroke-width="1px"></line><line x1="34" y1="59.33333333333334" x2="29" y2="59.33333333333334" style="visibility: inherit;" fill="rgb(0, 0, 0)" stroke="rgb(204, 204, 204)" stroke-width="1px"></line><line x1="34" y1="39.55555555555554" x2="29" y2="39.55555555555554" style="visibility: inherit;" fill="rgb(0, 0, 0)" stroke="rgb(204, 204, 204)" stroke-width="1px"></line><line x1="34" y1="19.7777777777778" x2="29" y2="19.7777777777778" style="visibility: inherit;" fill="rgb(0, 0, 0)" stroke="rgb(204, 204, 204)" stroke-width="1px"></line><line x1="34" y1="0" x2="29" y2="0" style="visibility: inherit;" fill="rgb(0, 0, 0)" stroke="rgb(204, 204, 204)" stroke-width="1px"></line></g><g transform="translate(24, 0)"><text x="0" y="178" dx="0em" dy="0.3em" style="text-anchor: end; visibility: hidden; font-family: &quot;Helvetica Neue&quot;, sans-serif; font-size: 12px; font-weight: 200;" fill="rgb(50, 49, 63)" stroke="none" stroke-width="1px">-5</text><text x="0" y="158.22222222222223" dx="0em" dy="0.3em" style="text-anchor: end; visibility: inherit; font-family: &quot;Helvetica Neue&quot;, sans-serif; font-size: 12px; font-weight: 200;" fill="rgb(50, 49, 63)" stroke="none" stroke-width="1px">0</text><text x="0" y="138.44444444444446" dx="0em" dy="0.3em" style="text-anchor: end; visibility: hidden; font-family: &quot;Helvetica Neue&quot;, sans-serif; font-size: 12px; font-weight: 200;" fill="rgb(50, 49, 63)" stroke="none" stroke-width="1px">5</text><text x="0" y="118.66666666666667" dx="0em" dy="0.3em" style="text-anchor: end; visibility: inherit; font-family: &quot;Helvetica Neue&quot;, sans-serif; font-size: 12px; font-weight: 200;" fill="rgb(50, 49, 63)" stroke="none" stroke-width="1px">10</text><text x="0" y="98.8888888888889" dx="0em" dy="0.3em" style="text-anchor: end; visibility: hidden; font-family: &quot;Helvetica Neue&quot;, sans-serif; font-size: 12px; font-weight: 200;" fill="rgb(50, 49, 63)" stroke="none" stroke-width="1px">15</text><text x="0" y="79.1111111111111" dx="0em" dy="0.3em" style="text-anchor: end; visibility: inherit; font-family: &quot;Helvetica Neue&quot;, sans-serif; font-size: 12px; font-weight: 200;" fill="rgb(50, 49, 63)" stroke="none" stroke-width="1px">20</text><text x="0" y="59.33333333333334" dx="0em" dy="0.3em" style="text-anchor: end; visibility: hidden; font-family: &quot;Helvetica Neue&quot;, sans-serif; font-size: 12px; font-weight: 200;" fill="rgb(50, 49, 63)" stroke="none" stroke-width="1px">25</text><text x="0" y="39.55555555555554" dx="0em" dy="0.3em" style="text-anchor: end; visibility: inherit; font-family: &quot;Helvetica Neue&quot;, sans-serif; font-size: 12px; font-weight: 200;" fill="rgb(50, 49, 63)" stroke="none" stroke-width="1px">30</text><text x="0" y="19.7777777777778" dx="0em" dy="0.3em" style="text-anchor: end; visibility: hidden; font-family: &quot;Helvetica Neue&quot;, sans-serif; font-size: 12px; font-weight: 200;" fill="rgb(50, 49, 63)" stroke="none" stroke-width="1px">35</text><text x="0" y="0" dx="0em" dy="0.3em" style="text-anchor: end; visibility: hidden; font-family: &quot;Helvetica Neue&quot;, sans-serif; font-size: 12px; font-weight: 200;" fill="rgb(50, 49, 63)" stroke="none" stroke-width="1px">40</text></g><line x1="34" y1="0" x2="34" y2="178" fill="rgb(0, 0, 0)" stroke="rgb(204, 204, 204)" stroke-width="1px"></line></g></g><g transform="translate(34, 0)" clip-path="url(#clip_0)"><clipPath id="clip_0"><rect width="296" height="178"></rect></clipPath><g><g><g><line x1="0" y1="0" x2="0" y2="178" fill="rgb(0, 0, 0)" stroke="rgb(60, 60, 60)" stroke-width="1px" opacity="0.25"></line><line x1="29.6" y1="0" x2="29.6" y2="178" fill="rgb(0, 0, 0)" stroke="rgb(60, 60, 60)" stroke-width="1px" opacity="0.25"></line><line x1="59.2" y1="0" x2="59.2" y2="178" fill="rgb(0, 0, 0)" stroke="rgb(60, 60, 60)" stroke-width="1px" opacity="0.25"></line><line x1="88.8" y1="0" x2="88.8" y2="178" fill="rgb(0, 0, 0)" stroke="rgb(60, 60, 60)" stroke-width="1px" opacity="0.25"></line><line x1="118.4" y1="0" x2="118.4" y2="178" fill="rgb(0, 0, 0)" stroke="rgb(60, 60, 60)" stroke-width="1px" opacity="0.25"></line><line x1="148" y1="0" x2="148" y2="178" fill="rgb(0, 0, 0)" stroke="rgb(60, 60, 60)" stroke-width="1px" opacity="0.25"></line><line x1="177.6" y1="0" x2="177.6" y2="178" fill="rgb(0, 0, 0)" stroke="rgb(60, 60, 60)" stroke-width="1px" opacity="0.25"></line><line x1="207.2" y1="0" x2="207.2" y2="178" fill="rgb(0, 0, 0)" stroke="rgb(60, 60, 60)" stroke-width="1px" opacity="0.25"></line><line x1="236.8" y1="0" x2="236.8" y2="178" fill="rgb(0, 0, 0)" stroke="rgb(60, 60, 60)" stroke-width="1px" opacity="0.25"></line><line x1="266.40000000000003" y1="0" x2="266.40000000000003" y2="178" fill="rgb(0, 0, 0)" stroke="rgb(60, 60, 60)" stroke-width="1px" opacity="0.25"></line><line x1="296" y1="0" x2="296" y2="178" fill="rgb(0, 0, 0)" stroke="rgb(60, 60, 60)" stroke-width="1px" opacity="0.25"></line></g><g><line x1="0" y1="178" x2="296" y2="178" fill="rgb(0, 0, 0)" stroke="rgb(60, 60, 60)" stroke-width="1px" opacity="0.25"></line><line x1="0" y1="158.22222222222223" x2="296" y2="158.22222222222223" fill="rgb(0, 0, 0)" stroke="rgb(60, 60, 60)" stroke-width="1px" opacity="0.25"></line><line x1="0" y1="138.44444444444446" x2="296" y2="138.44444444444446" fill="rgb(0, 0, 0)" stroke="rgb(60, 60, 60)" stroke-width="1px" opacity="0.25"></line><line x1="0" y1="118.66666666666667" x2="296" y2="118.66666666666667" fill="rgb(0, 0, 0)" stroke="rgb(60, 60, 60)" stroke-width="1px" opacity="0.25"></line><line x1="0" y1="98.8888888888889" x2="296" y2="98.8888888888889" fill="rgb(0, 0, 0)" stroke="rgb(60, 60, 60)" stroke-width="1px" opacity="0.25"></line><line x1="0" y1="79.1111111111111" x2="296" y2="79.1111111111111" fill="rgb(0, 0, 0)" stroke="rgb(60, 60, 60)" stroke-width="1px" opacity="0.25"></line><line x1="0" y1="59.33333333333334" x2="296" y2="59.33333333333334" fill="rgb(0, 0, 0)" stroke="rgb(60, 60, 60)" stroke-width="1px" opacity="0.25"></line><line x1="0" y1="39.55555555555554" x2="296" y2="39.55555555555554" fill="rgb(0, 0, 0)" stroke="rgb(60, 60, 60)" stroke-width="1px" opacity="0.25"></line><line x1="0" y1="19.7777777777778" x2="296" y2="19.7777777777778" fill="rgb(0, 0, 0)" stroke="rgb(60, 60, 60)" stroke-width="1px" opacity="0.25"></line><line x1="0" y1="0" x2="296" y2="0" fill="rgb(0, 0, 0)" stroke="rgb(60, 60, 60)" stroke-width="1px" opacity="0.25"></line></g></g></g><g><g><line x1="0" y1="158.22222222222223" x2="296" y2="158.22222222222223" fill="rgb(0, 0, 0)" stroke="rgb(153, 153, 153)" stroke-width="1.5px"></line></g></g><g><g><line x1="29.6" y1="0" x2="29.6" y2="178" fill="rgb(0, 0, 0)" stroke="rgb(153, 153, 153)" stroke-width="1.5px"></line></g></g><g><g><g><g><g><path stroke="rgb(238, 51, 119)" stroke-width="2px" d="M29.6,31.478311835394948L31.08,31.575658309792033L32.56,31.608265234970816L34.04,31.569030612589955L35.519999999999996,31.59801691059772L37,31.697510980934567L38.480000000000004,32.095289707072L39.96,37.2354013003509L41.440000000000005,57.92911441392026L42.919999999999995,78.39374104615251L44.4,92.90792487818737L45.88,97.90965090039342L47.36,103.43574608248379L48.84,106.48936062841636L50.32,111.67669968017394L51.8,106.34594481295294L53.28,108.66396444853753L54.76,96.42427154279208L56.24,99.41150763919202L57.72,99.3399821169993L59.2,105.21626091217074L60.68,109.31420700106275L62.16,106.38413892234979L63.64,107.730650204739L65.12,99.6207187162875L66.60000000000001,99.68676035473085L68.08,100.0398991091812L69.56,102.42198842669058L71.03999999999999,105.81183552313264L72.52,112.47157291309122L74,107.18452248484267L75.48,110.75269367264069L76.96000000000001,108.9159196898761L78.44,109.15250748306471L79.92,114.84307885509588L81.4,117.72668308910227L82.88000000000001,113.35846146369721L84.36,114.07447744531723L85.83999999999999,116.36925482686598L87.32,114.44935929039985L88.8,117.68377707870368L90.28,120.39542679677892L91.76,121.60422356792805L93.24,119.90437134504928L94.72,118.91495432033607L96.2,122.44406583180864L97.68,125.7655029682135L99.16000000000001,124.98780567430478L100.64,122.94260327094071L102.11999999999999,124.90981045261702L103.6,127.9916395116006L105.08,131.26620680486783L106.56,130.506176574767L108.03999999999999,122.20253641604629L109.52,121.07440209135711L111,120.98100028950188L112.48,119.23300017019915L113.96000000000001,117.71211948603025L115.44,114.62632082108061L116.92,114.59254655755538L118.4,114.31771220709186L119.88000000000001,111.52935361282675L121.36,110.88380619160661L122.83999999999999,112.98784825695395L124.32,115.07349838658706L125.8,112.24541358546772L127.28,111.75176481284997L128.76,114.49203902536784L130.24,112.6957740412919L131.72,112.19174729476096L133.20000000000002,114.62388672324775L134.68,115.78921299298935L136.16,115.40534662810435L137.64000000000001,118.7670154293266L139.12,122.44726703791159L140.6,125.04232083693427L142.07999999999998,121.82025714312351L143.56,124.17025491732736L145.04,123.5461979637387L146.52,126.9368258736182L148,128.4855232913936L149.48,129.49317480531835L150.96,124.46876928494568L152.44,118.32694982099076L153.92000000000002,117.15757357594788L155.4,118.37503461784988L156.88,116.24100781746785L158.36,120.14532419429099L159.84,121.04262997476187L161.32000000000002,123.32735057350634L162.8,121.69273395068487L164.28,121.202562837269L165.76000000000002,120.05699258248384L167.23999999999998,123.97093340906551L168.72,118.54763444218568L170.2,118.07742558406179L171.67999999999998,120.96806832878787L173.16,124.10209367971069L174.64,128.51590970339078L176.12,118.81205291167971L177.6,118.27070269211042L179.07999999999998,114.25320533176185L180.56,114.46559796286067L182.04,114.38641871930552L183.52,117.49124631450621L185,115.98137326650675L186.48,118.41872912375956L187.96,121.40411905392475L189.44,128.61888024362804L190.92000000000002,121.23228782758002L192.4,122.09287283404761L193.88,123.41115435304184L195.36,120.43135552167362L196.84,121.22652090982666L198.32000000000002,121.21971172134793L199.8,119.42368993904509L201.28,122.26366942746222L202.76000000000002,118.29444926368102L204.23999999999998,120.7122960013596L205.72,120.69227570094833L207.2,119.09619788579657L208.67999999999998,118.63169361828872L210.16,121.68335370601434L211.64,125.11882625732977L213.12,128.30655821726748L214.6,127.1967200228629L216.07999999999998,122.49674323832119L217.56,124.7304501797748L219.04,124.68820150950528L220.52,125.77115519318792L222,120.54588065674528L223.48,121.0702704857965L224.96,126.49407270666947L226.44,129.87248039195984L227.92000000000002,129.18557167482177L229.4,127.89444125821436L230.88,133.85963785459938L232.36,123.63267931514405L233.84,123.0058537608746L235.32000000000002,123.81441963203197L236.8,122.63277990841175L238.28,123.91209531272307L239.76000000000002,121.21285360152729L241.23999999999998,119.79565156298551L242.72,122.42419962249912L244.2,124.91598072544836L245.67999999999998,122.25532829854492L247.16,123.48235749811538L248.64,120.20133409922784L250.12,119.49058234739991L251.6,116.80296418336128L253.07999999999998,121.324171139459L254.56,123.35631847372221L256.04,122.45980059651387L257.52,122.12298799999226L259,123.25946068014451L260.48,124.86453298388656L261.96,125.78686279087515L263.44,125.06544596903073L264.92,123.8993025617917L266.40000000000003,126.83509871806055L267.88,125.77149871528351L269.36,126.61681957302532L270.84000000000003,125.41606054721663L272.32,126.72227744012655L273.8,131.58607082278087L275.28000000000003,129.2117671643167L276.76,123.65776621254253L278.24,124.24991501461807L279.71999999999997,125.48057744739222L281.2,123.95778951011187L282.68,124.15114959699528L284.15999999999997,126.31714903961549" style="fill: none;" fill="none"></path></g></g></g></g><g opacity="0.2"><g><g><g><path stroke="rgb(238, 51, 119)" stroke-width="2px" d="M29.6,31.478311835394948L31.08,31.64049106174045L32.56,31.644444444444446L34.04,31.51390736897787L35.519999999999996,31.644444444444446L37,31.869907972547736L38.480000000000004,32.819247945149726L39.96,46.88915591769748L41.440000000000005,97.59542355007596L42.919999999999995,118.14849060906303L44.4,121.35248849656847L45.88,107.7691106584337L47.36,114.37093158298069L48.84,112.54742249382866L50.32,121.98537678188748L51.8,95.74026853773329L53.28,113.27919815911187L54.76,72.04253073798286L56.24,105.36413366529676L57.72,99.19742249382867L59.2,116.93017726474338L60.68,117.48395640055338L62.16,100.54231198628743L63.64,110.41537602742513L65.12,83.45035603841144L66.60000000000001,99.81844308641222L68.08,100.74404390123155L69.56,107.17182167900933L71.03999999999999,112.57115410698785L72.52,125.75106811523438L74,96.6421339670817L75.48,117.86764577229818L76.96000000000001,105.25337859259712L78.44,109.62426567077637L79.92,126.19013502332899L81.4,123.47662065294054L82.88000000000001,104.64817907545302L84.36,115.50222146775988L85.83999999999999,120.94506751166449L87.32,110.62106509738499L88.8,124.13324432373047L90.28,125.80248849656846L91.76,124.0145787133111L93.24,116.51484574211969L94.72,116.94204495747886L96.2,129.4811563703749L97.68,132.388488345676L99.16000000000001,123.4370679643419L100.64,118.8644451989068L102.11999999999999,128.83244512346056L103.6,134.13684355417888L105.08,137.79573319753013L106.56,128.99066719479032L108.03999999999999,105.64497850206163L109.52,118.82488873799642L111,120.79475597805447L112.48,115.7474669986301L113.96000000000001,114.67946518792047L115.44,108.47320132785374L116.92,114.52520027160645L118.4,113.76968922085233L119.88000000000001,105.96933318244086L121.36,109.59657690260146L122.83999999999999,117.18333333333334L124.32,119.2323097229004L125.8,106.6061786227756L127.28,110.76742324829102L128.76,119.95617862277561L130.24,109.11400015089247L131.72,111.18671192593045L133.20000000000002,119.47360187106662L134.68,118.11288753085665L136.16,114.63991249932184L137.64000000000001,125.47022327846952L139.12,129.78573282029893L140.6,130.21688919067384L142.07999999999998,115.39542355007595L143.56,128.85617862277562L145.04,122.30182092454697L146.52,133.69777853224014L148,131.5736444897122L149.48,131.50244399176705L150.96,114.45004450480144L152.44,106.08008825514051L153.92000000000002,114.8258233388265L155.4,120.8026665157742L156.88,111.98573282029894L158.36,127.93057780795627L159.84,122.8318684471978L161.32000000000002,127.88311080932617L162.8,118.43328882853189L164.28,120.22515576680502L165.76000000000002,117.77271177503798L167.23999999999998,131.77537829081217L168.72,107.73351135253905L170.2,117.13982348971896L171.67999999999998,126.73204458024767L173.16,130.35137776268851L174.64,137.317111714681L176.12,99.46244625515408L177.6,117.19124387105308L179.07999999999998,106.242267481486L180.56,114.88911141289606L182.04,114.22853435940212L183.52,123.68230972290038L185,112.97066832648383L186.48,123.27884589301215L187.96,127.35702232784695L189.44,143.00520046022203L190.92000000000002,106.50333408779568L192.4,123.80888964335122L193.88,126.03982348971897L195.36,114.48960096571182L196.84,122.81209021674263L198.32000000000002,121.20613411797417L199.8,115.8424009958903L201.28,127.9266225390964L202.76000000000002,110.37977672153049L204.23999999999998,125.53351135253907L205.72,120.65235498216418L207.2,115.91359960767957L208.67999999999998,117.70546654595269L210.16,127.76840046776665L211.64,131.96919966803657L213.12,134.66293392181396L214.6,124.98368937174479L216.07999999999998,113.12493324279785L217.56,129.1844885720147L219.04,124.60395715501573L220.52,127.93057780795627L222,110.12662065294055L223.48,122.11591008504232L224.96,137.3091992908054L226.44,136.6090657764011L227.92000000000002,127.81586746639675L229.4,125.3199117448595L230.88,145.75431130727134L232.36,103.24000150892469L233.84,121.75595609876845L235.32000000000002,125.4267096625434L236.8,120.2765761481391L238.28,126.4630655500624L239.76000000000002,115.83053330315484L241.23999999999998,116.96973372565375L242.72,127.66555593278673L244.2,129.884622086419L245.67999999999998,116.94995549519857L247.16,125.92906841701932L248.64,113.65893414815267L250.12,118.07333484225802L251.6,111.44382137722438L253.07999999999998,130.33951195610894L254.56,127.40844459533692L256.04,120.67213321261936L257.52,121.45137964884441L259,125.52560081481934L260.48,128.06506637997097L261.96,127.62599947187636L263.44,123.62693218655056L264.92,121.57399864196778L266.40000000000003,132.68911141289604L267.88,123.65066757202149L269.36,128.3023994869656L270.84000000000003,123.02173266940648L272.32,129.326889567905L273.8,141.28453307681613L275.28000000000003,124.4773772345649L276.76,112.58302179972331L278.24,125.43066681755914L279.71999999999997,127.93453307681614L281.2,120.92133212619358L282.68,124.53671192593045L284.15999999999997,130.63617786831327" style="fill: none;" fill="none"></path></g></g></g></g></g></g><g transform="translate(34, 178)" clip-path="url(#clip_1)"><clipPath id="clip_1"><rect width="296" height="22"></rect></clipPath><g><g><line x1="0" y1="0" x2="0" y2="5" style="visibility: inherit;" fill="rgb(0, 0, 0)" stroke="rgb(204, 204, 204)" stroke-width="1px"></line><line x1="29.6" y1="0" x2="29.6" y2="5" style="visibility: inherit;" fill="rgb(0, 0, 0)" stroke="rgb(204, 204, 204)" stroke-width="1px"></line><line x1="59.2" y1="0" x2="59.2" y2="5" style="visibility: inherit;" fill="rgb(0, 0, 0)" stroke="rgb(204, 204, 204)" stroke-width="1px"></line><line x1="88.8" y1="0" x2="88.8" y2="5" style="visibility: inherit;" fill="rgb(0, 0, 0)" stroke="rgb(204, 204, 204)" stroke-width="1px"></line><line x1="118.4" y1="0" x2="118.4" y2="5" style="visibility: inherit;" fill="rgb(0, 0, 0)" stroke="rgb(204, 204, 204)" stroke-width="1px"></line><line x1="148" y1="0" x2="148" y2="5" style="visibility: inherit;" fill="rgb(0, 0, 0)" stroke="rgb(204, 204, 204)" stroke-width="1px"></line><line x1="177.6" y1="0" x2="177.6" y2="5" style="visibility: inherit;" fill="rgb(0, 0, 0)" stroke="rgb(204, 204, 204)" stroke-width="1px"></line><line x1="207.2" y1="0" x2="207.2" y2="5" style="visibility: inherit;" fill="rgb(0, 0, 0)" stroke="rgb(204, 204, 204)" stroke-width="1px"></line><line x1="236.8" y1="0" x2="236.8" y2="5" style="visibility: inherit;" fill="rgb(0, 0, 0)" stroke="rgb(204, 204, 204)" stroke-width="1px"></line><line x1="266.40000000000003" y1="0" x2="266.40000000000003" y2="5" style="visibility: inherit;" fill="rgb(0, 0, 0)" stroke="rgb(204, 204, 204)" stroke-width="1px"></line><line x1="296" y1="0" x2="296" y2="5" style="visibility: inherit;" fill="rgb(0, 0, 0)" stroke="rgb(204, 204, 204)" stroke-width="1px"></line></g><g transform="translate(0, 8)"><text x="0" y="0" dx="0em" dy="0.95em" style="text-anchor: middle; visibility: hidden; font-family: &quot;Helvetica Neue&quot;, sans-serif; font-size: 12px; font-weight: 200;" fill="rgb(50, 49, 63)" stroke="none" stroke-width="1px">-20</text><text x="29.6" y="0" dx="0em" dy="0.95em" style="text-anchor: middle; visibility: inherit; font-family: &quot;Helvetica Neue&quot;, sans-serif; font-size: 12px; font-weight: 200;" fill="rgb(50, 49, 63)" stroke="none" stroke-width="1px">0</text><text x="59.2" y="0" dx="0em" dy="0.95em" style="text-anchor: middle; visibility: inherit; font-family: &quot;Helvetica Neue&quot;, sans-serif; font-size: 12px; font-weight: 200;" fill="rgb(50, 49, 63)" stroke="none" stroke-width="1px">20</text><text x="88.8" y="0" dx="0em" dy="0.95em" style="text-anchor: middle; visibility: inherit; font-family: &quot;Helvetica Neue&quot;, sans-serif; font-size: 12px; font-weight: 200;" fill="rgb(50, 49, 63)" stroke="none" stroke-width="1px">40</text><text x="118.4" y="0" dx="0em" dy="0.95em" style="text-anchor: middle; visibility: inherit; font-family: &quot;Helvetica Neue&quot;, sans-serif; font-size: 12px; font-weight: 200;" fill="rgb(50, 49, 63)" stroke="none" stroke-width="1px">60</text><text x="148" y="0" dx="0em" dy="0.95em" style="text-anchor: middle; visibility: inherit; font-family: &quot;Helvetica Neue&quot;, sans-serif; font-size: 12px; font-weight: 200;" fill="rgb(50, 49, 63)" stroke="none" stroke-width="1px">80</text><text x="177.6" y="0" dx="0em" dy="0.95em" style="text-anchor: middle; visibility: inherit; font-family: &quot;Helvetica Neue&quot;, sans-serif; font-size: 12px; font-weight: 200;" fill="rgb(50, 49, 63)" stroke="none" stroke-width="1px">100</text><text x="207.2" y="0" dx="0em" dy="0.95em" style="text-anchor: middle; visibility: inherit; font-family: &quot;Helvetica Neue&quot;, sans-serif; font-size: 12px; font-weight: 200;" fill="rgb(50, 49, 63)" stroke="none" stroke-width="1px">120</text><text x="236.8" y="0" dx="0em" dy="0.95em" style="text-anchor: middle; visibility: inherit; font-family: &quot;Helvetica Neue&quot;, sans-serif; font-size: 12px; font-weight: 200;" fill="rgb(50, 49, 63)" stroke="none" stroke-width="1px">140</text><text x="266.40000000000003" y="0" dx="0em" dy="0.95em" style="text-anchor: middle; visibility: inherit; font-family: &quot;Helvetica Neue&quot;, sans-serif; font-size: 12px; font-weight: 200;" fill="rgb(50, 49, 63)" stroke="none" stroke-width="1px">160</text><text x="296" y="0" dx="0em" dy="0.95em" style="text-anchor: middle; visibility: hidden; font-family: &quot;Helvetica Neue&quot;, sans-serif; font-size: 12px; font-weight: 200;" fill="rgb(50, 49, 63)" stroke="none" stroke-width="1px">180</text></g><line x1="0" y1="0" x2="296" y2="0" fill="rgb(0, 0, 0)" stroke="rgb(204, 204, 204)" stroke-width="1px"></line></g></g></g></g></svg>